<svg width="551" height="183" viewBox="0 0 551 183" fill="none" xmlns="http://www.w3.org/2000/svg">
<rect width="551" height="183" fill="#D9A9FF"/>
<g filter="url(#filter0_dd_3_7)">
<path d="M90.4675 89.128C90.4675 88.8293 90.5315 88.584 90.6595 88.392C90.8088 88.2 91.0542 87.9973 91.3955 87.784L104.836 79.144C104.942 79.08 105.06 79.048 105.188 79.048C105.38 79.048 105.54 79.112 105.668 79.24C105.796 79.368 105.86 79.528 105.86 79.72V84.904C105.86 85.224 105.774 85.48 105.604 85.672C105.454 85.8427 105.294 85.9813 105.124 86.088C104.974 86.1947 104.878 86.2587 104.836 86.28L99.2355 89.8L104.836 93.32C104.878 93.3413 104.996 93.416 105.188 93.544C105.401 93.672 105.561 93.832 105.668 94.024C105.796 94.216 105.86 94.44 105.86 94.696V99.88C105.86 100.072 105.796 100.232 105.668 100.36C105.54 100.488 105.38 100.552 105.188 100.552C105.06 100.552 104.942 100.52 104.836 100.456L91.3955 91.816C91.0542 91.6027 90.8088 91.4 90.6595 91.208C90.5315 91.016 90.4675 90.7707 90.4675 90.472V89.128ZM134.967 102.696C135.01 102.803 135.031 102.899 135.031 102.984C135.031 103.176 134.956 103.336 134.807 103.464C134.679 103.613 134.519 103.688 134.327 103.688H129.847C129.164 103.688 128.695 103.368 128.439 102.728L116.983 76.84C116.94 76.7333 116.919 76.6373 116.919 76.552C116.919 76.36 116.983 76.2 117.111 76.072C117.26 75.9227 117.431 75.848 117.623 75.848H122.199C122.562 75.848 122.86 75.944 123.095 76.136C123.351 76.328 123.522 76.552 123.607 76.808L134.967 102.696ZM189.502 89.32C190.334 89.576 191.049 90.1413 191.646 91.016C192.243 91.8693 192.542 92.8507 192.542 93.96C192.542 96.328 191.774 98.0987 190.238 99.272C188.702 100.424 186.462 101 183.518 101H170.334C170.099 101 169.897 100.915 169.726 100.744C169.555 100.573 169.47 100.371 169.47 100.136V79.464C169.47 79.2293 169.555 79.0267 169.726 78.856C169.897 78.6853 170.099 78.6 170.334 78.6H183.198C186.227 78.6 188.457 79.1547 189.886 80.264C191.337 81.352 192.062 83.0053 192.062 85.224V85.32C192.062 86.344 191.785 87.2187 191.23 87.944C190.675 88.6693 190.099 89.128 189.502 89.32ZM183.39 85.512C183.39 85.128 183.273 84.7973 183.038 84.52C182.825 84.2427 182.505 84.104 182.078 84.104H177.79V87.016H182.078C182.505 87.016 182.825 86.8667 183.038 86.568C183.273 86.248 183.39 85.896 183.39 85.512ZM182.43 95.496C182.921 95.496 183.283 95.336 183.518 95.016C183.774 94.6747 183.902 94.3013 183.902 93.896V93.864C183.902 93.4587 183.763 93.1067 183.486 92.808C183.23 92.5093 182.878 92.36 182.43 92.36H177.79V95.496H182.43ZM217.906 94.76C218.14 94.76 218.343 94.8453 218.514 95.016C218.684 95.1867 218.77 95.3893 218.77 95.624V100.136C218.77 100.371 218.684 100.573 218.514 100.744C218.343 100.915 218.14 101 217.906 101H197.682C197.447 101 197.244 100.915 197.074 100.744C196.903 100.573 196.818 100.371 196.818 100.136V79.464C196.818 79.2293 196.903 79.0267 197.074 78.856C197.244 78.6853 197.447 78.6 197.682 78.6H217.586C217.82 78.6 218.023 78.6853 218.194 78.856C218.364 79.0267 218.45 79.2293 218.45 79.464V83.976C218.45 84.2107 218.364 84.4133 218.194 84.584C218.023 84.7547 217.82 84.84 217.586 84.84H205.138V86.856H215.826C216.06 86.856 216.263 86.9413 216.434 87.112C216.604 87.2827 216.69 87.4853 216.69 87.72V91.88C216.69 92.1147 216.604 92.3173 216.434 92.488C216.263 92.6587 216.06 92.744 215.826 92.744H205.138V94.76H217.906ZM236.485 86.728C238.832 86.984 240.709 87.4 242.117 87.976C243.546 88.552 244.581 89.3093 245.221 90.248C245.861 91.1867 246.181 92.36 246.181 93.768C246.181 95.304 245.68 96.648 244.677 97.8C243.696 98.9307 242.33 99.8053 240.581 100.424C238.832 101.021 236.837 101.32 234.597 101.32C232.101 101.32 229.989 101.011 228.261 100.392C226.533 99.7733 225.242 98.952 224.389 97.928C223.536 96.8827 223.109 95.7413 223.109 94.504C223.109 94.2907 223.173 94.12 223.301 93.992C223.45 93.864 223.632 93.8 223.845 93.8H230.405C230.853 93.8 231.216 93.9387 231.493 94.216C231.856 94.5573 232.261 94.792 232.709 94.92C233.157 95.0267 233.786 95.08 234.597 95.08C236.624 95.08 237.637 94.7707 237.637 94.152C237.637 93.896 237.498 93.6827 237.221 93.512C236.965 93.32 236.496 93.16 235.813 93.032C235.152 92.8827 234.17 92.7333 232.869 92.584C229.946 92.2427 227.706 91.5173 226.149 90.408C224.592 89.2773 223.813 87.688 223.813 85.64C223.813 84.1893 224.25 82.9093 225.125 81.8C226 80.6907 227.237 79.8267 228.837 79.208C230.458 78.5893 232.336 78.28 234.469 78.28C236.688 78.28 238.629 78.632 240.293 79.336C241.957 80.0187 243.226 80.872 244.101 81.896C244.976 82.92 245.413 83.9227 245.413 84.904C245.413 85.1173 245.338 85.288 245.189 85.416C245.061 85.544 244.88 85.608 244.645 85.608H237.765C237.402 85.608 237.072 85.48 236.773 85.224C236.538 85.0107 236.261 84.84 235.941 84.712C235.621 84.584 235.13 84.52 234.469 84.52C233.04 84.52 232.325 84.8187 232.325 85.416C232.325 85.736 232.602 85.992 233.157 86.184C233.712 86.3547 234.821 86.536 236.485 86.728ZM272.569 78.6C272.803 78.6 273.006 78.6853 273.177 78.856C273.347 79.0267 273.433 79.2293 273.433 79.464V100.136C273.433 100.371 273.347 100.573 273.177 100.744C273.006 100.915 272.803 101 272.569 101H265.977C265.742 101 265.539 100.915 265.369 100.744C265.198 100.573 265.113 100.371 265.113 100.136V93.32H258.713V100.136C258.713 100.371 258.627 100.573 258.457 100.744C258.286 100.915 258.083 101 257.849 101H251.257C251.022 101 250.819 100.925 250.649 100.776C250.478 100.605 250.393 100.392 250.393 100.136V79.464C250.393 79.2293 250.478 79.0267 250.649 78.856C250.819 78.6853 251.022 78.6 251.257 78.6H257.849C258.083 78.6 258.286 78.6853 258.457 78.856C258.627 79.0267 258.713 79.2293 258.713 79.464V86.024H265.113V79.464C265.113 79.2293 265.198 79.0267 265.369 78.856C265.539 78.6853 265.742 78.6 265.977 78.6H272.569ZM300.14 78.6C300.375 78.6 300.577 78.6853 300.748 78.856C300.919 79.0267 301.004 79.2293 301.004 79.464V84.616C301.004 84.8507 300.919 85.0533 300.748 85.224C300.577 85.3947 300.375 85.48 300.14 85.48H293.26V100.136C293.26 100.371 293.175 100.573 293.004 100.744C292.833 100.915 292.631 101 292.396 101H285.804C285.569 101 285.367 100.915 285.196 100.744C285.025 100.573 284.94 100.371 284.94 100.136V85.48H278.06C277.825 85.48 277.623 85.3947 277.452 85.224C277.281 85.0533 277.196 84.8507 277.196 84.616V79.464C277.196 79.2293 277.281 79.0267 277.452 78.856C277.623 78.6853 277.825 78.6 278.06 78.6H300.14ZM320.64 94.44H326.432C326.666 94.44 326.869 94.5253 327.04 94.696C327.21 94.8667 327.296 95.0693 327.296 95.304V100.136C327.296 100.371 327.21 100.573 327.04 100.744C326.869 100.915 326.666 101 326.432 101H306.144C305.909 101 305.706 100.915 305.536 100.744C305.365 100.573 305.28 100.371 305.28 100.136V95.304C305.28 95.0693 305.365 94.8667 305.536 94.696C305.706 94.5253 305.909 94.44 306.144 94.44H312V85.16H306.144C305.909 85.16 305.706 85.0747 305.536 84.904C305.365 84.7333 305.28 84.5307 305.28 84.296V79.464C305.28 79.2293 305.365 79.0267 305.536 78.856C305.706 78.6853 305.909 78.6 306.144 78.6H326.432C326.666 78.6 326.869 78.6853 327.04 78.856C327.21 79.0267 327.296 79.2293 327.296 79.464V84.296C327.296 84.5307 327.21 84.7333 327.04 84.904C326.869 85.0747 326.666 85.16 326.432 85.16H320.64V94.44ZM347.667 79.464C347.987 78.888 348.446 78.6 349.043 78.6H354.899C355.134 78.6 355.336 78.6853 355.507 78.856C355.678 79.0267 355.763 79.2293 355.763 79.464V100.136C355.763 100.371 355.678 100.573 355.507 100.744C355.336 100.915 355.134 101 354.899 101H349.107C348.872 101 348.67 100.915 348.499 100.744C348.328 100.573 348.243 100.371 348.243 100.136V90.216L345.907 94.824C345.843 94.9733 345.694 95.144 345.459 95.336C345.224 95.528 344.926 95.624 344.563 95.624H342.387C342.024 95.624 341.726 95.528 341.491 95.336C341.256 95.144 341.107 94.9733 341.043 94.824L338.707 90.216V100.136C338.707 100.371 338.622 100.573 338.451 100.744C338.28 100.915 338.078 101 337.843 101H332.051C331.816 101 331.614 100.915 331.443 100.744C331.272 100.573 331.187 100.371 331.187 100.136V79.464C331.187 79.2293 331.272 79.0267 331.443 78.856C331.614 78.6853 331.816 78.6 332.051 78.6H337.907C338.504 78.6 338.963 78.888 339.283 79.464L343.475 87.144L347.667 79.464ZM389.53 89.128C389.53 88.8293 389.594 88.584 389.722 88.392C389.871 88.2 390.117 87.9973 390.458 87.784L403.898 79.144C404.005 79.08 404.122 79.048 404.25 79.048C404.442 79.048 404.602 79.112 404.73 79.24C404.858 79.368 404.922 79.528 404.922 79.72V84.904C404.922 85.224 404.837 85.48 404.666 85.672C404.517 85.8427 404.357 85.9813 404.186 86.088C404.037 86.1947 403.941 86.2587 403.898 86.28L398.298 89.8L403.898 93.32C403.941 93.3413 404.058 93.416 404.25 93.544C404.463 93.672 404.623 93.832 404.73 94.024C404.858 94.216 404.922 94.44 404.922 94.696V99.88C404.922 100.072 404.858 100.232 404.73 100.36C404.602 100.488 404.442 100.552 404.25 100.552C404.122 100.552 404.005 100.52 403.898 100.456L390.458 91.816C390.117 91.6027 389.871 91.4 389.722 91.208C389.594 91.016 389.53 90.7707 389.53 90.472V89.128ZM434.03 102.696C434.072 102.803 434.094 102.899 434.094 102.984C434.094 103.176 434.019 103.336 433.87 103.464C433.742 103.613 433.582 103.688 433.39 103.688H428.91C428.227 103.688 427.758 103.368 427.502 102.728L416.046 76.84C416.003 76.7333 415.982 76.6373 415.982 76.552C415.982 76.36 416.046 76.2 416.174 76.072C416.323 75.9227 416.494 75.848 416.686 75.848H421.262C421.624 75.848 421.923 75.944 422.158 76.136C422.414 76.328 422.584 76.552 422.67 76.808L434.03 102.696ZM455.585 93.384C455.82 93.384 456.022 93.4693 456.193 93.64C456.364 93.8107 456.449 94.0133 456.449 94.248V100.136C456.449 100.371 456.364 100.573 456.193 100.744C456.022 100.915 455.82 101 455.585 101H448.865C448.63 101 448.428 100.915 448.257 100.744C448.086 100.573 448.001 100.371 448.001 100.136V94.248C448.001 94.0133 448.086 93.8107 448.257 93.64C448.428 93.4693 448.63 93.384 448.865 93.384H455.585Z" fill="#FFEA60"/>
</g>
<path d="M235.7 165.11C235.7 165.301 235.763 165.448 235.889 165.551C236.02 165.654 236.195 165.705 236.414 165.705C236.61 165.705 236.755 165.672 236.848 165.607C236.941 165.542 237.021 165.444 237.086 165.313C237.147 165.192 237.228 165.131 237.331 165.131H238.843C238.885 165.131 238.92 165.147 238.948 165.18C238.981 165.208 238.997 165.243 238.997 165.285C238.997 165.57 238.901 165.85 238.71 166.125C238.519 166.396 238.227 166.622 237.835 166.804C237.448 166.981 236.974 167.07 236.414 167.07C235.915 167.07 235.469 166.995 235.077 166.846C234.69 166.692 234.382 166.459 234.153 166.146C233.924 165.829 233.81 165.434 233.81 164.963V164.137C233.81 163.666 233.924 163.274 234.153 162.961C234.382 162.644 234.69 162.41 235.077 162.261C235.469 162.107 235.915 162.03 236.414 162.03C236.974 162.03 237.448 162.121 237.835 162.303C238.227 162.48 238.519 162.707 238.71 162.982C238.901 163.253 238.997 163.53 238.997 163.815C238.997 163.857 238.981 163.894 238.948 163.927C238.92 163.955 238.885 163.969 238.843 163.969H237.331C237.228 163.969 237.147 163.908 237.086 163.787C237.021 163.656 236.941 163.558 236.848 163.493C236.755 163.428 236.61 163.395 236.414 163.395C236.195 163.395 236.02 163.446 235.889 163.549C235.763 163.652 235.7 163.799 235.7 163.99V165.11ZM244.573 165.565C244.625 165.565 244.669 165.584 244.706 165.621C244.744 165.658 244.762 165.703 244.762 165.754V166.811C244.762 166.862 244.744 166.907 244.706 166.944C244.669 166.981 244.625 167 244.573 167H240.485C240.434 167 240.39 166.981 240.352 166.944C240.315 166.907 240.296 166.862 240.296 166.811V162.289C240.296 162.238 240.315 162.193 240.352 162.156C240.39 162.119 240.434 162.1 240.485 162.1H241.997C242.049 162.1 242.093 162.119 242.13 162.156C242.168 162.193 242.186 162.238 242.186 162.289V165.565H244.573ZM249.191 165.565H250.458C250.509 165.565 250.553 165.584 250.591 165.621C250.628 165.658 250.647 165.703 250.647 165.754V166.811C250.647 166.862 250.628 166.907 250.591 166.944C250.553 166.981 250.509 167 250.458 167H246.02C245.968 167 245.924 166.981 245.887 166.944C245.849 166.907 245.831 166.862 245.831 166.811V165.754C245.831 165.703 245.849 165.658 245.887 165.621C245.924 165.584 245.968 165.565 246.02 165.565H247.301V163.535H246.02C245.968 163.535 245.924 163.516 245.887 163.479C245.849 163.442 245.831 163.397 245.831 163.346V162.289C245.831 162.238 245.849 162.193 245.887 162.156C245.924 162.119 245.968 162.1 246.02 162.1H250.458C250.509 162.1 250.553 162.119 250.591 162.156C250.628 162.193 250.647 162.238 250.647 162.289V163.346C250.647 163.397 250.628 163.442 250.591 163.479C250.553 163.516 250.509 163.535 250.458 163.535H249.191V165.565ZM253.542 165.11C253.542 165.301 253.605 165.448 253.731 165.551C253.862 165.654 254.037 165.705 254.256 165.705C254.452 165.705 254.597 165.672 254.69 165.607C254.783 165.542 254.863 165.444 254.928 165.313C254.989 165.192 255.07 165.131 255.173 165.131H256.685C256.727 165.131 256.762 165.147 256.79 165.18C256.823 165.208 256.839 165.243 256.839 165.285C256.839 165.57 256.743 165.85 256.552 166.125C256.361 166.396 256.069 166.622 255.677 166.804C255.29 166.981 254.816 167.07 254.256 167.07C253.757 167.07 253.311 166.995 252.919 166.846C252.532 166.692 252.224 166.459 251.995 166.146C251.766 165.829 251.652 165.434 251.652 164.963V164.137C251.652 163.666 251.766 163.274 251.995 162.961C252.224 162.644 252.532 162.41 252.919 162.261C253.311 162.107 253.757 162.03 254.256 162.03C254.816 162.03 255.29 162.121 255.677 162.303C256.069 162.48 256.361 162.707 256.552 162.982C256.743 163.253 256.839 163.53 256.839 163.815C256.839 163.857 256.823 163.894 256.79 163.927C256.762 163.955 256.727 163.969 256.685 163.969H255.173C255.07 163.969 254.989 163.908 254.928 163.787C254.863 163.656 254.783 163.558 254.69 163.493C254.597 163.428 254.452 163.395 254.256 163.395C254.037 163.395 253.862 163.446 253.731 163.549C253.605 163.652 253.542 163.799 253.542 163.99V165.11ZM263.024 166.755C263.043 166.783 263.052 166.813 263.052 166.846C263.052 166.888 263.036 166.925 263.003 166.958C262.975 166.986 262.94 167 262.898 167H261.092C260.985 167 260.901 166.963 260.84 166.888L259.622 165.383V166.811C259.622 166.862 259.604 166.907 259.566 166.944C259.529 166.981 259.485 167 259.433 167H257.991C257.94 167 257.896 166.981 257.858 166.944C257.821 166.907 257.802 166.862 257.802 166.811V162.289C257.802 162.238 257.821 162.193 257.858 162.156C257.896 162.119 257.94 162.1 257.991 162.1H259.433C259.485 162.1 259.529 162.119 259.566 162.156C259.604 162.193 259.622 162.238 259.622 162.289V163.605L260.728 162.219C260.798 162.14 260.885 162.1 260.987 162.1H262.674C262.716 162.1 262.751 162.116 262.779 162.149C262.812 162.177 262.828 162.212 262.828 162.254C262.828 162.291 262.817 162.324 262.793 162.352L261.134 164.375L263.024 166.755ZM274.394 162.1C274.445 162.1 274.489 162.119 274.527 162.156C274.564 162.193 274.583 162.238 274.583 162.289V163.353C274.583 163.404 274.564 163.449 274.527 163.486C274.489 163.523 274.445 163.542 274.394 163.542H271.643V163.99H273.939C273.99 163.99 274.034 164.009 274.072 164.046C274.109 164.083 274.128 164.128 274.128 164.179V165.236C274.128 165.287 274.109 165.332 274.072 165.369C274.034 165.406 273.99 165.425 273.939 165.425H271.643V166.811C271.643 166.862 271.624 166.907 271.587 166.944C271.549 166.981 271.505 167 271.454 167H269.942C269.89 167 269.846 166.981 269.809 166.944C269.771 166.907 269.753 166.862 269.753 166.811V162.289C269.753 162.238 269.771 162.193 269.809 162.156C269.846 162.119 269.89 162.1 269.942 162.1H274.394ZM280.579 164.977C280.579 165.691 280.341 166.218 279.865 166.559C279.394 166.9 278.764 167.07 277.975 167.07C277.186 167.07 276.554 166.9 276.078 166.559C275.607 166.218 275.371 165.686 275.371 164.963V164.137C275.371 163.661 275.483 163.267 275.707 162.954C275.936 162.637 276.246 162.403 276.638 162.254C277.03 162.105 277.476 162.03 277.975 162.03C278.474 162.03 278.918 162.105 279.305 162.254C279.697 162.403 280.007 162.634 280.236 162.947C280.465 163.26 280.579 163.652 280.579 164.123V164.977ZM277.261 165.11C277.261 165.301 277.324 165.448 277.45 165.551C277.581 165.654 277.756 165.705 277.975 165.705C278.194 165.705 278.367 165.654 278.493 165.551C278.624 165.444 278.689 165.294 278.689 165.103V163.997C278.689 163.806 278.624 163.659 278.493 163.556C278.367 163.449 278.194 163.395 277.975 163.395C277.756 163.395 277.581 163.446 277.45 163.549C277.324 163.652 277.261 163.799 277.261 163.99V165.11ZM286.701 166.783C286.711 166.802 286.715 166.823 286.715 166.846C286.715 166.888 286.699 166.925 286.666 166.958C286.638 166.986 286.603 167 286.561 167H284.972C284.907 167 284.846 166.984 284.79 166.951C284.739 166.918 284.702 166.876 284.678 166.825L284.062 165.439H283.474V166.811C283.474 166.862 283.456 166.907 283.418 166.944C283.381 166.981 283.337 167 283.285 167H281.773C281.722 167 281.678 166.981 281.64 166.944C281.603 166.907 281.584 166.862 281.584 166.811V162.289C281.584 162.238 281.603 162.193 281.64 162.156C281.678 162.119 281.722 162.1 281.773 162.1H284.496C284.916 162.1 285.283 162.168 285.595 162.303C285.913 162.438 286.155 162.634 286.323 162.891C286.491 163.148 286.575 163.449 286.575 163.794C286.575 164.429 286.33 164.888 285.84 165.173L286.701 166.783ZM284.349 164.144C284.452 164.144 284.531 164.111 284.587 164.046C284.643 163.976 284.671 163.89 284.671 163.787C284.671 163.684 284.643 163.596 284.587 163.521C284.536 163.442 284.457 163.402 284.349 163.402H283.474V164.144H284.349ZM296.769 165.565H298.036C298.087 165.565 298.131 165.584 298.169 165.621C298.206 165.658 298.225 165.703 298.225 165.754V166.811C298.225 166.862 298.206 166.907 298.169 166.944C298.131 166.981 298.087 167 298.036 167H293.598C293.546 167 293.502 166.981 293.465 166.944C293.427 166.907 293.409 166.862 293.409 166.811V165.754C293.409 165.703 293.427 165.658 293.465 165.621C293.502 165.584 293.546 165.565 293.598 165.565H294.879V163.535H293.598C293.546 163.535 293.502 163.516 293.465 163.479C293.427 163.442 293.409 163.397 293.409 163.346V162.289C293.409 162.238 293.427 162.193 293.465 162.156C293.502 162.119 293.546 162.1 293.598 162.1H298.036C298.087 162.1 298.131 162.119 298.169 162.156C298.206 162.193 298.225 162.238 298.225 162.289V163.346C298.225 163.397 298.206 163.442 298.169 163.479C298.131 163.516 298.087 163.535 298.036 163.535H296.769V165.565ZM303.955 162.1C304.006 162.1 304.051 162.119 304.088 162.156C304.125 162.193 304.144 162.238 304.144 162.289V166.811C304.144 166.862 304.125 166.907 304.088 166.944C304.051 166.981 304.006 167 303.955 167H302.828C302.716 167 302.623 166.951 302.548 166.853L301.022 164.907V166.811C301.022 166.862 301.003 166.907 300.966 166.944C300.929 166.981 300.884 167 300.833 167H299.531C299.48 167 299.435 166.981 299.398 166.944C299.361 166.907 299.342 166.862 299.342 166.811V162.289C299.342 162.238 299.361 162.193 299.398 162.156C299.435 162.119 299.48 162.1 299.531 162.1H300.665C300.777 162.1 300.868 162.147 300.938 162.24L302.464 164.347V162.289C302.464 162.238 302.483 162.193 302.52 162.156C302.557 162.119 302.602 162.1 302.653 162.1H303.955ZM310.077 162.1C310.129 162.1 310.173 162.119 310.21 162.156C310.248 162.193 310.266 162.238 310.266 162.289V163.353C310.266 163.404 310.248 163.449 310.21 163.486C310.173 163.523 310.129 163.542 310.077 163.542H307.326V163.99H309.622C309.674 163.99 309.718 164.009 309.755 164.046C309.793 164.083 309.811 164.128 309.811 164.179V165.236C309.811 165.287 309.793 165.332 309.755 165.369C309.718 165.406 309.674 165.425 309.622 165.425H307.326V166.811C307.326 166.862 307.308 166.907 307.27 166.944C307.233 166.981 307.189 167 307.137 167H305.625C305.574 167 305.53 166.981 305.492 166.944C305.455 166.907 305.436 166.862 305.436 166.811V162.289C305.436 162.238 305.455 162.193 305.492 162.156C305.53 162.119 305.574 162.1 305.625 162.1H310.077ZM316.263 164.977C316.263 165.691 316.025 166.218 315.549 166.559C315.077 166.9 314.447 167.07 313.659 167.07C312.87 167.07 312.238 166.9 311.762 166.559C311.29 166.218 311.055 165.686 311.055 164.963V164.137C311.055 163.661 311.167 163.267 311.391 162.954C311.619 162.637 311.93 162.403 312.322 162.254C312.714 162.105 313.159 162.03 313.659 162.03C314.158 162.03 314.601 162.105 314.989 162.254C315.381 162.403 315.691 162.634 315.92 162.947C316.148 163.26 316.263 163.652 316.263 164.123V164.977ZM312.945 165.11C312.945 165.301 313.008 165.448 313.134 165.551C313.264 165.654 313.439 165.705 313.659 165.705C313.878 165.705 314.051 165.654 314.177 165.551C314.307 165.444 314.373 165.294 314.373 165.103V163.997C314.373 163.806 314.307 163.659 314.177 163.556C314.051 163.449 313.878 163.395 313.659 163.395C313.439 163.395 313.264 163.446 313.134 163.549C313.008 163.652 312.945 163.799 312.945 163.99V165.11Z" fill="black"/>
<defs>
<filter id="filter0_dd_3_7" x="86.4675" y="75.848" width="373.982" height="35.84" filterUnits="userSpaceOnUse" color-interpolation-filters="sRGB">
<feFlood flood-opacity="0" result="BackgroundImageFix"/>
<feColorMatrix in="SourceAlpha" type="matrix" values="0 0 0 0 0 0 0 0 0 0 0 0 0 0 0 0 0 0 127 0" result="hardAlpha"/>
<feOffset dy="4"/>
<feGaussianBlur stdDeviation="2"/>
<feComposite in2="hardAlpha" operator="out"/>
<feColorMatrix type="matrix" values="0 0 0 0 0 0 0 0 0 0 0 0 0 0 0 0 0 0 0.25 0"/>
<feBlend mode="normal" in2="BackgroundImageFix" result="effect1_dropShadow_3_7"/>
<feColorMatrix in="SourceAlpha" type="matrix" values="0 0 0 0 0 0 0 0 0 0 0 0 0 0 0 0 0 0 127 0" result="hardAlpha"/>
<feOffset dy="4"/>
<feGaussianBlur stdDeviation="2"/>
<feComposite in2="hardAlpha" operator="out"/>
<feColorMatrix type="matrix" values="0 0 0 0 0 0 0 0 0 0 0 0 0 0 0 0 0 0 0.25 0"/>
<feBlend mode="normal" in2="effect1_dropShadow_3_7" result="effect2_dropShadow_3_7"/>
<feBlend mode="normal" in="SourceGraphic" in2="effect2_dropShadow_3_7" result="shape"/>
</filter>
</defs>
</svg>
