<svg width="551" height="183" viewBox="0 0 551 183" fill="none" xmlns="http://www.w3.org/2000/svg">
<rect width="551" height="183" fill="#D9A9FF"/>
<g filter="url(#filter0_dd_3_5)">
<path d="M90.4675 89.128C90.4675 88.8293 90.5315 88.584 90.6595 88.392C90.8088 88.2 91.0542 87.9973 91.3955 87.784L104.836 79.144C104.942 79.08 105.06 79.048 105.188 79.048C105.38 79.048 105.54 79.112 105.668 79.24C105.796 79.368 105.86 79.528 105.86 79.72V84.904C105.86 85.224 105.774 85.48 105.604 85.672C105.454 85.8427 105.294 85.9813 105.124 86.088C104.974 86.1947 104.878 86.2587 104.836 86.28L99.2355 89.8L104.836 93.32C104.878 93.3413 104.996 93.416 105.188 93.544C105.401 93.672 105.561 93.832 105.668 94.024C105.796 94.216 105.86 94.44 105.86 94.696V99.88C105.86 100.072 105.796 100.232 105.668 100.36C105.54 100.488 105.38 100.552 105.188 100.552C105.06 100.552 104.942 100.52 104.836 100.456L91.3955 91.816C91.0542 91.6027 90.8088 91.4 90.6595 91.208C90.5315 91.016 90.4675 90.7707 90.4675 90.472V89.128ZM134.967 102.696C135.01 102.803 135.031 102.899 135.031 102.984C135.031 103.176 134.956 103.336 134.807 103.464C134.679 103.613 134.519 103.688 134.327 103.688H129.847C129.164 103.688 128.695 103.368 128.439 102.728L116.983 76.84C116.94 76.7333 116.919 76.6373 116.919 76.552C116.919 76.36 116.983 76.2 117.111 76.072C117.26 75.9227 117.431 75.848 117.623 75.848H122.199C122.562 75.848 122.86 75.944 123.095 76.136C123.351 76.328 123.522 76.552 123.607 76.808L134.967 102.696ZM189.502 89.32C190.334 89.576 191.049 90.1413 191.646 91.016C192.243 91.8693 192.542 92.8507 192.542 93.96C192.542 96.328 191.774 98.0987 190.238 99.272C188.702 100.424 186.462 101 183.518 101H170.334C170.099 101 169.897 100.915 169.726 100.744C169.555 100.573 169.47 100.371 169.47 100.136V79.464C169.47 79.2293 169.555 79.0267 169.726 78.856C169.897 78.6853 170.099 78.6 170.334 78.6H183.198C186.227 78.6 188.457 79.1547 189.886 80.264C191.337 81.352 192.062 83.0053 192.062 85.224V85.32C192.062 86.344 191.785 87.2187 191.23 87.944C190.675 88.6693 190.099 89.128 189.502 89.32ZM183.39 85.512C183.39 85.128 183.273 84.7973 183.038 84.52C182.825 84.2427 182.505 84.104 182.078 84.104H177.79V87.016H182.078C182.505 87.016 182.825 86.8667 183.038 86.568C183.273 86.248 183.39 85.896 183.39 85.512ZM182.43 95.496C182.921 95.496 183.283 95.336 183.518 95.016C183.774 94.6747 183.902 94.3013 183.902 93.896V93.864C183.902 93.4587 183.763 93.1067 183.486 92.808C183.23 92.5093 182.878 92.36 182.43 92.36H177.79V95.496H182.43ZM217.906 94.76C218.14 94.76 218.343 94.8453 218.514 95.016C218.684 95.1867 218.77 95.3893 218.77 95.624V100.136C218.77 100.371 218.684 100.573 218.514 100.744C218.343 100.915 218.14 101 217.906 101H197.682C197.447 101 197.244 100.915 197.074 100.744C196.903 100.573 196.818 100.371 196.818 100.136V79.464C196.818 79.2293 196.903 79.0267 197.074 78.856C197.244 78.6853 197.447 78.6 197.682 78.6H217.586C217.82 78.6 218.023 78.6853 218.194 78.856C218.364 79.0267 218.45 79.2293 218.45 79.464V83.976C218.45 84.2107 218.364 84.4133 218.194 84.584C218.023 84.7547 217.82 84.84 217.586 84.84H205.138V86.856H215.826C216.06 86.856 216.263 86.9413 216.434 87.112C216.604 87.2827 216.69 87.4853 216.69 87.72V91.88C216.69 92.1147 216.604 92.3173 216.434 92.488C216.263 92.6587 216.06 92.744 215.826 92.744H205.138V94.76H217.906ZM236.485 86.728C238.832 86.984 240.709 87.4 242.117 87.976C243.546 88.552 244.581 89.3093 245.221 90.248C245.861 91.1867 246.181 92.36 246.181 93.768C246.181 95.304 245.68 96.648 244.677 97.8C243.696 98.9307 242.33 99.8053 240.581 100.424C238.832 101.021 236.837 101.32 234.597 101.32C232.101 101.32 229.989 101.011 228.261 100.392C226.533 99.7733 225.242 98.952 224.389 97.928C223.536 96.8827 223.109 95.7413 223.109 94.504C223.109 94.2907 223.173 94.12 223.301 93.992C223.45 93.864 223.632 93.8 223.845 93.8H230.405C230.853 93.8 231.216 93.9387 231.493 94.216C231.856 94.5573 232.261 94.792 232.709 94.92C233.157 95.0267 233.786 95.08 234.597 95.08C236.624 95.08 237.637 94.7707 237.637 94.152C237.637 93.896 237.498 93.6827 237.221 93.512C236.965 93.32 236.496 93.16 235.813 93.032C235.152 92.8827 234.17 92.7333 232.869 92.584C229.946 92.2427 227.706 91.5173 226.149 90.408C224.592 89.2773 223.813 87.688 223.813 85.64C223.813 84.1893 224.25 82.9093 225.125 81.8C226 80.6907 227.237 79.8267 228.837 79.208C230.458 78.5893 232.336 78.28 234.469 78.28C236.688 78.28 238.629 78.632 240.293 79.336C241.957 80.0187 243.226 80.872 244.101 81.896C244.976 82.92 245.413 83.9227 245.413 84.904C245.413 85.1173 245.338 85.288 245.189 85.416C245.061 85.544 244.88 85.608 244.645 85.608H237.765C237.402 85.608 237.072 85.48 236.773 85.224C236.538 85.0107 236.261 84.84 235.941 84.712C235.621 84.584 235.13 84.52 234.469 84.52C233.04 84.52 232.325 84.8187 232.325 85.416C232.325 85.736 232.602 85.992 233.157 86.184C233.712 86.3547 234.821 86.536 236.485 86.728ZM272.569 78.6C272.803 78.6 273.006 78.6853 273.177 78.856C273.347 79.0267 273.433 79.2293 273.433 79.464V100.136C273.433 100.371 273.347 100.573 273.177 100.744C273.006 100.915 272.803 101 272.569 101H265.977C265.742 101 265.539 100.915 265.369 100.744C265.198 100.573 265.113 100.371 265.113 100.136V93.32H258.713V100.136C258.713 100.371 258.627 100.573 258.457 100.744C258.286 100.915 258.083 101 257.849 101H251.257C251.022 101 250.819 100.925 250.649 100.776C250.478 100.605 250.393 100.392 250.393 100.136V79.464C250.393 79.2293 250.478 79.0267 250.649 78.856C250.819 78.6853 251.022 78.6 251.257 78.6H257.849C258.083 78.6 258.286 78.6853 258.457 78.856C258.627 79.0267 258.713 79.2293 258.713 79.464V86.024H265.113V79.464C265.113 79.2293 265.198 79.0267 265.369 78.856C265.539 78.6853 265.742 78.6 265.977 78.6H272.569ZM300.14 78.6C300.375 78.6 300.577 78.6853 300.748 78.856C300.919 79.0267 301.004 79.2293 301.004 79.464V84.616C301.004 84.8507 300.919 85.0533 300.748 85.224C300.577 85.3947 300.375 85.48 300.14 85.48H293.26V100.136C293.26 100.371 293.175 100.573 293.004 100.744C292.833 100.915 292.631 101 292.396 101H285.804C285.569 101 285.367 100.915 285.196 100.744C285.025 100.573 284.94 100.371 284.94 100.136V85.48H278.06C277.825 85.48 277.623 85.3947 277.452 85.224C277.281 85.0533 277.196 84.8507 277.196 84.616V79.464C277.196 79.2293 277.281 79.0267 277.452 78.856C277.623 78.6853 277.825 78.6 278.06 78.6H300.14ZM320.64 94.44H326.432C326.666 94.44 326.869 94.5253 327.04 94.696C327.21 94.8667 327.296 95.0693 327.296 95.304V100.136C327.296 100.371 327.21 100.573 327.04 100.744C326.869 100.915 326.666 101 326.432 101H306.144C305.909 101 305.706 100.915 305.536 100.744C305.365 100.573 305.28 100.371 305.28 100.136V95.304C305.28 95.0693 305.365 94.8667 305.536 94.696C305.706 94.5253 305.909 94.44 306.144 94.44H312V85.16H306.144C305.909 85.16 305.706 85.0747 305.536 84.904C305.365 84.7333 305.28 84.5307 305.28 84.296V79.464C305.28 79.2293 305.365 79.0267 305.536 78.856C305.706 78.6853 305.909 78.6 306.144 78.6H326.432C326.666 78.6 326.869 78.6853 327.04 78.856C327.21 79.0267 327.296 79.2293 327.296 79.464V84.296C327.296 84.5307 327.21 84.7333 327.04 84.904C326.869 85.0747 326.666 85.16 326.432 85.16H320.64V94.44ZM347.667 79.464C347.987 78.888 348.446 78.6 349.043 78.6H354.899C355.134 78.6 355.336 78.6853 355.507 78.856C355.678 79.0267 355.763 79.2293 355.763 79.464V100.136C355.763 100.371 355.678 100.573 355.507 100.744C355.336 100.915 355.134 101 354.899 101H349.107C348.872 101 348.67 100.915 348.499 100.744C348.328 100.573 348.243 100.371 348.243 100.136V90.216L345.907 94.824C345.843 94.9733 345.694 95.144 345.459 95.336C345.224 95.528 344.926 95.624 344.563 95.624H342.387C342.024 95.624 341.726 95.528 341.491 95.336C341.256 95.144 341.107 94.9733 341.043 94.824L338.707 90.216V100.136C338.707 100.371 338.622 100.573 338.451 100.744C338.28 100.915 338.078 101 337.843 101H332.051C331.816 101 331.614 100.915 331.443 100.744C331.272 100.573 331.187 100.371 331.187 100.136V79.464C331.187 79.2293 331.272 79.0267 331.443 78.856C331.614 78.6853 331.816 78.6 332.051 78.6H337.907C338.504 78.6 338.963 78.888 339.283 79.464L343.475 87.144L347.667 79.464ZM389.53 89.128C389.53 88.8293 389.594 88.584 389.722 88.392C389.871 88.2 390.117 87.9973 390.458 87.784L403.898 79.144C404.005 79.08 404.122 79.048 404.25 79.048C404.442 79.048 404.602 79.112 404.73 79.24C404.858 79.368 404.922 79.528 404.922 79.72V84.904C404.922 85.224 404.837 85.48 404.666 85.672C404.517 85.8427 404.357 85.9813 404.186 86.088C404.037 86.1947 403.941 86.2587 403.898 86.28L398.298 89.8L403.898 93.32C403.941 93.3413 404.058 93.416 404.25 93.544C404.463 93.672 404.623 93.832 404.73 94.024C404.858 94.216 404.922 94.44 404.922 94.696V99.88C404.922 100.072 404.858 100.232 404.73 100.36C404.602 100.488 404.442 100.552 404.25 100.552C404.122 100.552 404.005 100.52 403.898 100.456L390.458 91.816C390.117 91.6027 389.871 91.4 389.722 91.208C389.594 91.016 389.53 90.7707 389.53 90.472V89.128ZM434.03 102.696C434.072 102.803 434.094 102.899 434.094 102.984C434.094 103.176 434.019 103.336 433.87 103.464C433.742 103.613 433.582 103.688 433.39 103.688H428.91C428.227 103.688 427.758 103.368 427.502 102.728L416.046 76.84C416.003 76.7333 415.982 76.6373 415.982 76.552C415.982 76.36 416.046 76.2 416.174 76.072C416.323 75.9227 416.494 75.848 416.686 75.848H421.262C421.624 75.848 421.923 75.944 422.158 76.136C422.414 76.328 422.584 76.552 422.67 76.808L434.03 102.696ZM455.585 93.384C455.82 93.384 456.022 93.4693 456.193 93.64C456.364 93.8107 456.449 94.0133 456.449 94.248V100.136C456.449 100.371 456.364 100.573 456.193 100.744C456.022 100.915 455.82 101 455.585 101H448.865C448.63 101 448.428 100.915 448.257 100.744C448.086 100.573 448.001 100.371 448.001 100.136V94.248C448.001 94.0133 448.086 93.8107 448.257 93.64C448.428 93.4693 448.63 93.384 448.865 93.384H455.585Z" fill="#FFEA60"/>
</g>
<defs>
<filter id="filter0_dd_3_5" x="86.4675" y="75.848" width="373.982" height="35.84" filterUnits="userSpaceOnUse" color-interpolation-filters="sRGB">
<feFlood flood-opacity="0" result="BackgroundImageFix"/>
<feColorMatrix in="SourceAlpha" type="matrix" values="0 0 0 0 0 0 0 0 0 0 0 0 0 0 0 0 0 0 127 0" result="hardAlpha"/>
<feOffset dy="4"/>
<feGaussianBlur stdDeviation="2"/>
<feComposite in2="hardAlpha" operator="out"/>
<feColorMatrix type="matrix" values="0 0 0 0 0 0 0 0 0 0 0 0 0 0 0 0 0 0 0.25 0"/>
<feBlend mode="normal" in2="BackgroundImageFix" result="effect1_dropShadow_3_5"/>
<feColorMatrix in="SourceAlpha" type="matrix" values="0 0 0 0 0 0 0 0 0 0 0 0 0 0 0 0 0 0 127 0" result="hardAlpha"/>
<feOffset dy="4"/>
<feGaussianBlur stdDeviation="2"/>
<feComposite in2="hardAlpha" operator="out"/>
<feColorMatrix type="matrix" values="0 0 0 0 0 0 0 0 0 0 0 0 0 0 0 0 0 0 0.25 0"/>
<feBlend mode="normal" in2="effect1_dropShadow_3_5" result="effect2_dropShadow_3_5"/>
<feBlend mode="normal" in="SourceGraphic" in2="effect2_dropShadow_3_5" result="shape"/>
</filter>
</defs>
</svg>
